<svg width="120" height="40" viewBox="0 0 120 40" fill="none" xmlns="http://www.w3.org/2000/svg">
  <!-- Coffee Cup Icon -->
  <g transform="translate(0, 8)">
    <path d="M4 4H18C19.1 4 20 4.9 20 6V18C20 20.2 18.2 22 16 22H6C3.8 22 2 20.2 2 18V6C2 4.9 2.9 4 4 4Z" stroke="#f59e0b" stroke-width="1.5" fill="none"/>
    <path d="M20 8H22C23.1 8 24 8.9 24 10V12C24 13.1 23.1 14 22 14H20" stroke="#f59e0b" stroke-width="1.5" fill="none"/>
    <path d="M6 2V4" stroke="#f59e0b" stroke-width="1.5" stroke-linecap="round"/>
    <path d="M11 2V4" stroke="#f59e0b" stroke-width="1.5" stroke-linecap="round"/>
    <path d="M16 2V4" stroke="#f59e0b" stroke-width="1.5" stroke-linecap="round"/>
  </g>
  
  <!-- Text -->
  <text x="32" y="16" font-family="Inter, sans-serif" font-size="12" font-weight="700" fill="#f59e0b">Sweet</text>
  <text x="32" y="28" font-family="Inter, sans-serif" font-size="10" font-weight="500" fill="#d97706">Karam Coffee</text>
</svg>