<svg xmlns="http://www.w3.org/2000/svg" width="200" height="200" viewBox="0 0 200 200">
  <!-- Background Circle -->
  <circle cx="100" cy="100" r="95" fill="#FBBF24" />
  
  <!-- Cake Base -->
  <path d="M40 120 C40 150, 160 150, 160 120 L160 140 C160 170, 40 170, 40 140 Z" fill="#92400E" />
  
  <!-- Cake Middle Layer -->
  <path d="M50 100 C50 120, 150 120, 150 100 L150 120 C150 140, 50 140, 50 120 Z" fill="#F59E0B" />
  
  <!-- Cake Top Layer -->
  <path d="M60 80 C60 100, 140 100, 140 80 L140 100 C140 120, 60 120, 60 100 Z" fill="#FEF3C7" />
  
  <!-- Frosting -->
  <path d="M70 80 Q75 70 80 80 Q85 70 90 80 Q95 70 100 80 Q105 70 110 80 Q115 70 120 80 Q125 70 130 80" stroke="#D97706" stroke-width="3" fill="none" />
  
  <!-- Candles -->
  <rect x="80" y="60" width="4" height="20" fill="#EF4444" />
  <rect x="100" y="55" width="4" height="25" fill="#3B82F6" />
  <rect x="120" y="60" width="4" height="20" fill="#10B981" />
  
  <!-- Flames -->
  <ellipse cx="82" cy="58" rx="3" ry="5" fill="#FBBF24" />
  <ellipse cx="102" cy="53" rx="3" ry="5" fill="#FBBF24" />
  <ellipse cx="122" cy="58" rx="3" ry="5" fill="#FBBF24" />
  
  <!-- Text -->
  <text x="100" y="190" font-family="Arial, sans-serif" font-size="16" font-weight="bold" text-anchor="middle" fill="#78350F">Bakery Admin</text>
</svg>